<?xml version="1.0" encoding="UTF-8" standalone="no"?>
<!DOCTYPE svg PUBLIC "-//W3C//DTD SVG 1.1//EN"
 "http://www.w3.org/Graphics/SVG/1.1/DTD/svg11.dtd">
<!-- Generated by graphviz version 2.43.0 (0)
 -->
<!-- Title: tree Pages: 1 -->
<svg width="628pt" height="365pt"
 viewBox="0.00 0.00 627.81 364.90" xmlns="http://www.w3.org/2000/svg" xmlns:xlink="http://www.w3.org/1999/xlink">
<g id="graph0" class="graph" transform="scale(1 1) rotate(0) translate(4 360.9)">
<title>tree</title>
<polygon fill="white" stroke="transparent" points="-4,4 -4,-360.9 623.81,-360.9 623.81,4 -4,4"/>
<!-- a -->
<g id="node1" class="node">
<title>a</title>
<ellipse fill="lightgrey" stroke="black" cx="227.41" cy="-326.5" rx="30.31" ry="30.31"/>
<text text-anchor="middle" x="227.41" y="-318.4" font-family="Times,serif" font-size="32.00" fill="blue">a</text>
</g>
<!-- b -->
<g id="node2" class="node">
<title>b</title>
<ellipse fill="lightgrey" stroke="black" cx="30.41" cy="-229.68" rx="30.31" ry="30.31"/>
<text text-anchor="middle" x="30.41" y="-221.58" font-family="Times,serif" font-size="32.00" fill="blue">b</text>
</g>
<!-- a&#45;&gt;b -->
<g id="edge1" class="edge">
<title>a&#45;&gt;b</title>
<path fill="none" stroke="black" d="M198.66,-315.87C166.42,-304.55 113.08,-284.2 70.41,-260.09 67.72,-258.57 65,-256.9 62.31,-255.15"/>
<polygon fill="black" stroke="black" points="64.12,-252.15 53.89,-249.38 60.16,-257.92 64.12,-252.15"/>
</g>
<!-- c -->
<g id="node3" class="node">
<title>c</title>
<ellipse fill="lightgrey" stroke="black" cx="109.41" cy="-229.68" rx="30.31" ry="30.31"/>
<text text-anchor="middle" x="109.41" y="-221.58" font-family="Times,serif" font-size="32.00" fill="blue">c</text>
</g>
<!-- a&#45;&gt;c -->
<g id="edge2" class="edge">
<title>a&#45;&gt;c</title>
<path fill="none" stroke="black" d="M204.09,-306.76C185.91,-292.16 160.49,-271.73 140.56,-255.72"/>
<polygon fill="black" stroke="black" points="142.66,-252.91 132.67,-249.38 138.27,-258.37 142.66,-252.91"/>
</g>
<!-- d -->
<g id="node4" class="node">
<title>d</title>
<ellipse fill="lightgrey" stroke="black" cx="188.41" cy="-229.68" rx="30.31" ry="30.31"/>
<text text-anchor="middle" x="188.41" y="-221.58" font-family="Times,serif" font-size="32.00" fill="blue">d</text>
</g>
<!-- a&#45;&gt;d -->
<g id="edge3" class="edge">
<title>a&#45;&gt;d</title>
<path fill="none" stroke="black" d="M216.13,-298.07C212.2,-288.54 207.74,-277.69 203.56,-267.52"/>
<polygon fill="black" stroke="black" points="206.7,-265.96 199.66,-258.05 200.23,-268.63 206.7,-265.96"/>
</g>
<!-- e -->
<g id="node5" class="node">
<title>e</title>
<ellipse fill="lightgrey" stroke="black" cx="267.41" cy="-229.68" rx="30.31" ry="30.31"/>
<text text-anchor="middle" x="267.41" y="-221.58" font-family="Times,serif" font-size="32.00" fill="blue">e</text>
</g>
<!-- a&#45;&gt;e -->
<g id="edge4" class="edge">
<title>a&#45;&gt;e</title>
<path fill="none" stroke="black" d="M238.87,-298.33C242.97,-288.61 247.66,-277.49 252.04,-267.12"/>
<polygon fill="black" stroke="black" points="255.28,-268.43 255.94,-257.86 248.83,-265.71 255.28,-268.43"/>
</g>
<!-- f -->
<g id="node6" class="node">
<title>f</title>
<ellipse fill="lightgrey" stroke="black" cx="386.41" cy="-229.68" rx="30.31" ry="30.31"/>
<text text-anchor="middle" x="386.41" y="-221.58" font-family="Times,serif" font-size="32.00" fill="blue">f</text>
</g>
<!-- a&#45;&gt;f -->
<g id="edge5" class="edge">
<title>a&#45;&gt;f</title>
<path fill="none" stroke="black" d="M253.31,-310.05C280.1,-294.07 322.1,-269.03 351.74,-251.35"/>
<polygon fill="black" stroke="black" points="353.72,-254.25 360.52,-246.12 350.14,-248.24 353.72,-254.25"/>
</g>
<!-- g -->
<g id="node7" class="node">
<title>g</title>
<ellipse fill="lightgrey" stroke="black" cx="547.41" cy="-229.68" rx="30.31" ry="30.31"/>
<text text-anchor="middle" x="547.41" y="-221.58" font-family="Times,serif" font-size="32.00" fill="blue">g</text>
</g>
<!-- a&#45;&gt;g -->
<g id="edge6" class="edge">
<title>a&#45;&gt;g</title>
<path fill="none" stroke="black" d="M256.37,-316.91C314.05,-299.82 443.33,-261.52 508.41,-242.24"/>
<polygon fill="black" stroke="black" points="509.68,-245.51 518.28,-239.31 507.7,-238.8 509.68,-245.51"/>
</g>
<!-- h -->
<g id="node8" class="node">
<title>h</title>
<ellipse fill="lightgrey" stroke="black" cx="109.41" cy="-130.05" rx="30.31" ry="30.31"/>
<text text-anchor="middle" x="109.41" y="-121.95" font-family="Times,serif" font-size="32.00" fill="blue">h</text>
</g>
<!-- d&#45;&gt;h -->
<g id="edge7" class="edge">
<title>d&#45;&gt;h</title>
<path fill="none" stroke="black" d="M169.68,-205.55C159.23,-192.63 146.07,-176.36 134.71,-162.32"/>
<polygon fill="black" stroke="black" points="137.28,-159.93 128.27,-154.36 131.84,-164.33 137.28,-159.93"/>
</g>
<!-- i -->
<g id="node9" class="node">
<title>i</title>
<ellipse fill="lightgrey" stroke="black" cx="188.41" cy="-130.05" rx="30.31" ry="30.31"/>
<text text-anchor="middle" x="188.41" y="-121.95" font-family="Times,serif" font-size="32.00" fill="blue">i</text>
</g>
<!-- e&#45;&gt;i -->
<g id="edge8" class="edge">
<title>e&#45;&gt;i</title>
<path fill="none" stroke="black" d="M248.68,-205.55C238.23,-192.63 225.07,-176.36 213.71,-162.32"/>
<polygon fill="black" stroke="black" points="216.28,-159.93 207.27,-154.36 210.84,-164.33 216.28,-159.93"/>
</g>
<!-- j -->
<g id="node10" class="node">
<title>j</title>
<ellipse fill="lightgrey" stroke="black" cx="267.41" cy="-130.05" rx="30.31" ry="30.31"/>
<text text-anchor="middle" x="267.41" y="-121.95" font-family="Times,serif" font-size="32.00" fill="blue">j</text>
</g>
<!-- e&#45;&gt;j -->
<g id="edge9" class="edge">
<title>e&#45;&gt;j</title>
<path fill="none" stroke="black" d="M267.41,-199.12C267.41,-190.14 267.41,-180.12 267.41,-170.58"/>
<polygon fill="black" stroke="black" points="270.91,-170.5 267.41,-160.5 263.91,-170.5 270.91,-170.5"/>
</g>
<!-- k -->
<g id="node13" class="node">
<title>k</title>
<ellipse fill="lightgrey" stroke="black" cx="346.41" cy="-130.05" rx="30.31" ry="30.31"/>
<text text-anchor="middle" x="346.41" y="-121.95" font-family="Times,serif" font-size="32.00" fill="blue">k</text>
</g>
<!-- f&#45;&gt;k -->
<g id="edge12" class="edge">
<title>f&#45;&gt;k</title>
<path fill="none" stroke="black" d="M375.16,-201.23C370.94,-190.93 366.07,-179.06 361.56,-168.04"/>
<polygon fill="black" stroke="black" points="364.74,-166.56 357.71,-158.64 358.26,-169.22 364.74,-166.56"/>
</g>
<!-- l -->
<g id="node14" class="node">
<title>l</title>
<ellipse fill="lightgrey" stroke="black" cx="425.41" cy="-130.05" rx="30.31" ry="30.31"/>
<text text-anchor="middle" x="425.41" y="-121.95" font-family="Times,serif" font-size="32.00" fill="blue">l</text>
</g>
<!-- f&#45;&gt;l -->
<g id="edge13" class="edge">
<title>f&#45;&gt;l</title>
<path fill="none" stroke="black" d="M397.37,-201.23C401.49,-190.93 406.23,-179.06 410.63,-168.04"/>
<polygon fill="black" stroke="black" points="413.93,-169.22 414.39,-158.64 407.43,-166.62 413.93,-169.22"/>
</g>
<!-- m -->
<g id="node15" class="node">
<title>m</title>
<ellipse fill="lightgrey" stroke="black" cx="507.41" cy="-130.05" rx="33.47" ry="33.47"/>
<text text-anchor="middle" x="507.41" y="-121.95" font-family="Times,serif" font-size="32.00" fill="blue">m</text>
</g>
<!-- f&#45;&gt;m -->
<g id="edge14" class="edge">
<title>f&#45;&gt;m</title>
<path fill="none" stroke="black" d="M409.74,-209.86C427.92,-195.18 453.43,-174.6 473.81,-158.15"/>
<polygon fill="black" stroke="black" points="476.05,-160.85 481.63,-151.84 471.65,-155.4 476.05,-160.85"/>
</g>
<!-- n -->
<g id="node16" class="node">
<title>n</title>
<ellipse fill="lightgrey" stroke="black" cx="589.41" cy="-130.05" rx="30.31" ry="30.31"/>
<text text-anchor="middle" x="589.41" y="-121.95" font-family="Times,serif" font-size="32.00" fill="blue">n</text>
</g>
<!-- g&#45;&gt;n -->
<g id="edge15" class="edge">
<title>g&#45;&gt;n</title>
<path fill="none" stroke="black" d="M559.1,-201.49C563.57,-191.1 568.74,-179.08 573.54,-167.94"/>
<polygon fill="black" stroke="black" points="576.89,-169.01 577.62,-158.44 570.46,-166.24 576.89,-169.01"/>
</g>
<!-- p -->
<g id="node11" class="node">
<title>p</title>
<ellipse fill="lightgrey" stroke="black" cx="228.41" cy="-30.41" rx="30.31" ry="30.31"/>
<text text-anchor="middle" x="228.41" y="-22.31" font-family="Times,serif" font-size="32.00" fill="blue">p</text>
</g>
<!-- j&#45;&gt;p -->
<g id="edge10" class="edge">
<title>j&#45;&gt;p</title>
<path fill="none" stroke="black" d="M256.44,-101.59C252.33,-91.29 247.58,-79.42 243.18,-68.4"/>
<polygon fill="black" stroke="black" points="246.39,-66.98 239.43,-59 239.88,-69.58 246.39,-66.98"/>
</g>
<!-- q -->
<g id="node12" class="node">
<title>q</title>
<ellipse fill="lightgrey" stroke="black" cx="307.41" cy="-30.41" rx="30.31" ry="30.31"/>
<text text-anchor="middle" x="307.41" y="-22.31" font-family="Times,serif" font-size="32.00" fill="blue">q</text>
</g>
<!-- j&#45;&gt;q -->
<g id="edge11" class="edge">
<title>j&#45;&gt;q</title>
<path fill="none" stroke="black" d="M278.65,-101.59C282.87,-91.29 287.74,-79.42 292.25,-68.4"/>
<polygon fill="black" stroke="black" points="295.55,-69.58 296.1,-59 289.07,-66.92 295.55,-69.58"/>
</g>
</g>
</svg>
