<?xml version="1.0" encoding="UTF-8" standalone="no"?>
<!DOCTYPE svg PUBLIC "-//W3C//DTD SVG 1.1//EN"
 "http://www.w3.org/Graphics/SVG/1.1/DTD/svg11.dtd">
<!-- Generated by graphviz version 2.43.0 (0)
 -->
<!-- Title: %3 Pages: 1 -->
<svg width="481pt" height="118pt"
 viewBox="0.00 0.00 481.00 118.00" xmlns="http://www.w3.org/2000/svg" xmlns:xlink="http://www.w3.org/1999/xlink">
<g id="graph0" class="graph" transform="scale(1 1) rotate(0) translate(4 114)">
<title>%3</title>
<polygon fill="white" stroke="transparent" points="-4,4 -4,-114 477,-114 477,4 -4,4"/>
<!-- NodeRefs: -->
<g id="node1" class="node">
<title>NodeRefs:</title>
<text text-anchor="middle" x="55" y="-87.1" font-family="Times,serif" font-size="18.00" fill="red">NodeRefs:</text>
</g>
<!-- Nodes: -->
<g id="node2" class="node">
<title>Nodes:</title>
<text text-anchor="middle" x="55" y="-14.1" font-family="Times,serif" font-size="18.00" fill="red">Nodes:</text>
</g>
<!-- NodeRefs:&#45;&gt;Nodes: -->
<g id="edge1" class="edge">
<title>NodeRefs:&#45;&gt;Nodes:</title>
<path fill="none" stroke="white" d="M55,-73.31C55,-65.29 55,-55.55 55,-46.57"/>
<polygon fill="white" stroke="white" points="58.5,-46.53 55,-36.53 51.5,-46.53 58.5,-46.53"/>
</g>
<!-- NodeRefs -->
<g id="node3" class="node">
<title>NodeRefs</title>
<polygon fill="none" stroke="white" points="131,-73.5 131,-109.5 473,-109.5 473,-73.5 131,-73.5"/>
<text text-anchor="middle" x="140" y="-87.8" font-family="Times,serif" font-size="14.00">0</text>
<polyline fill="none" stroke="white" points="149,-73.5 149,-109.5 "/>
<text text-anchor="middle" x="158" y="-87.8" font-family="Times,serif" font-size="14.00">1</text>
<polyline fill="none" stroke="white" points="167,-73.5 167,-109.5 "/>
<text text-anchor="middle" x="176" y="-87.8" font-family="Times,serif" font-size="14.00">2</text>
<polyline fill="none" stroke="white" points="185,-73.5 185,-109.5 "/>
<text text-anchor="middle" x="194" y="-87.8" font-family="Times,serif" font-size="14.00">3</text>
<polyline fill="none" stroke="white" points="203,-73.5 203,-109.5 "/>
<text text-anchor="middle" x="212" y="-87.8" font-family="Times,serif" font-size="14.00">4</text>
<polyline fill="none" stroke="white" points="221,-73.5 221,-109.5 "/>
<text text-anchor="middle" x="230" y="-87.8" font-family="Times,serif" font-size="14.00">5</text>
<polyline fill="none" stroke="white" points="239,-73.5 239,-109.5 "/>
<text text-anchor="middle" x="248" y="-87.8" font-family="Times,serif" font-size="14.00">6</text>
<polyline fill="none" stroke="white" points="257,-73.5 257,-109.5 "/>
<text text-anchor="middle" x="266" y="-87.8" font-family="Times,serif" font-size="14.00">7</text>
<polyline fill="none" stroke="white" points="275,-73.5 275,-109.5 "/>
<text text-anchor="middle" x="284" y="-87.8" font-family="Times,serif" font-size="14.00">8</text>
<polyline fill="none" stroke="white" points="293,-73.5 293,-109.5 "/>
<text text-anchor="middle" x="302" y="-87.8" font-family="Times,serif" font-size="14.00">9</text>
<polyline fill="none" stroke="white" points="311,-73.5 311,-109.5 "/>
<text text-anchor="middle" x="324.5" y="-87.8" font-family="Times,serif" font-size="14.00">10</text>
<polyline fill="none" stroke="white" points="338,-73.5 338,-109.5 "/>
<text text-anchor="middle" x="351.5" y="-87.8" font-family="Times,serif" font-size="14.00">11</text>
<polyline fill="none" stroke="white" points="365,-73.5 365,-109.5 "/>
<text text-anchor="middle" x="378.5" y="-87.8" font-family="Times,serif" font-size="14.00">12</text>
<polyline fill="none" stroke="white" points="392,-73.5 392,-109.5 "/>
<text text-anchor="middle" x="405.5" y="-87.8" font-family="Times,serif" font-size="14.00">13</text>
<polyline fill="none" stroke="white" points="419,-73.5 419,-109.5 "/>
<text text-anchor="middle" x="432.5" y="-87.8" font-family="Times,serif" font-size="14.00">14</text>
<polyline fill="none" stroke="white" points="446,-73.5 446,-109.5 "/>
<text text-anchor="middle" x="459.5" y="-87.8" font-family="Times,serif" font-size="14.00">15</text>
</g>
<!-- Nodes -->
<g id="node4" class="node">
<title>Nodes</title>
<polygon fill="lightblue" stroke="blue" points="113,-0.5 113,-36.5 455,-36.5 455,-0.5 113,-0.5"/>
<text text-anchor="middle" x="124.5" y="-14.8" font-family="Times,serif" font-size="14.00">b</text>
<polyline fill="none" stroke="blue" points="136,-0.5 136,-36.5 "/>
<text text-anchor="middle" x="146.5" y="-14.8" font-family="Times,serif" font-size="14.00">c</text>
<polyline fill="none" stroke="blue" points="157,-0.5 157,-36.5 "/>
<text text-anchor="middle" x="168" y="-14.8" font-family="Times,serif" font-size="14.00">h</text>
<polyline fill="none" stroke="blue" points="179,-0.5 179,-36.5 "/>
<text text-anchor="middle" x="190.5" y="-14.8" font-family="Times,serif" font-size="14.00">d</text>
<polyline fill="none" stroke="blue" points="202,-0.5 202,-36.5 "/>
<text text-anchor="middle" x="211" y="-14.8" font-family="Times,serif" font-size="14.00">i</text>
<polyline fill="none" stroke="blue" points="220,-0.5 220,-36.5 "/>
<text text-anchor="middle" x="231" y="-14.8" font-family="Times,serif" font-size="14.00">p</text>
<polyline fill="none" stroke="blue" points="242,-0.5 242,-36.5 "/>
<text text-anchor="middle" x="253.5" y="-14.8" font-family="Times,serif" font-size="14.00">q</text>
<polyline fill="none" stroke="blue" points="265,-0.5 265,-36.5 "/>
<text text-anchor="middle" x="273.5" y="-14.8" font-family="Times,serif" font-size="14.00">j</text>
<polyline fill="none" stroke="blue" points="282,-0.5 282,-36.5 "/>
<text text-anchor="middle" x="293" y="-14.8" font-family="Times,serif" font-size="14.00">e</text>
<polyline fill="none" stroke="blue" points="304,-0.5 304,-36.5 "/>
<text text-anchor="middle" x="315" y="-14.8" font-family="Times,serif" font-size="14.00">k</text>
<polyline fill="none" stroke="blue" points="326,-0.5 326,-36.5 "/>
<text text-anchor="middle" x="334.5" y="-14.8" font-family="Times,serif" font-size="14.00">l</text>
<polyline fill="none" stroke="blue" points="343,-0.5 343,-36.5 "/>
<text text-anchor="middle" x="356.5" y="-14.8" font-family="Times,serif" font-size="14.00">m</text>
<polyline fill="none" stroke="blue" points="370,-0.5 370,-36.5 "/>
<text text-anchor="middle" x="379.5" y="-14.8" font-family="Times,serif" font-size="14.00">f</text>
<polyline fill="none" stroke="blue" points="389,-0.5 389,-36.5 "/>
<text text-anchor="middle" x="400" y="-14.8" font-family="Times,serif" font-size="14.00">n</text>
<polyline fill="none" stroke="blue" points="411,-0.5 411,-36.5 "/>
<text text-anchor="middle" x="422.5" y="-14.8" font-family="Times,serif" font-size="14.00">g</text>
<polyline fill="none" stroke="blue" points="434,-0.5 434,-36.5 "/>
<text text-anchor="middle" x="444.5" y="-14.8" font-family="Times,serif" font-size="14.00">a</text>
</g>
<!-- NodeRefs&#45;&gt;Nodes -->
<g id="edge2" class="edge">
<title>NodeRefs:f0&#45;&gt;Nodes:f0</title>
<path fill="none" stroke="black" d="M140,-73C140,-59.59 130.62,-55.88 126.22,-47.01"/>
<polygon fill="black" stroke="black" points="129.59,-46 124,-37 122.75,-47.52 129.59,-46"/>
</g>
<!-- NodeRefs&#45;&gt;Nodes -->
<g id="edge3" class="edge">
<title>NodeRefs:f1&#45;&gt;Nodes:f1</title>
<path fill="none" stroke="black" d="M158,-73C158,-60.22 151.11,-55.82 147.77,-47.1"/>
<polygon fill="black" stroke="black" points="151.17,-46.25 146,-37 144.28,-47.45 151.17,-46.25"/>
</g>
<!-- NodeRefs&#45;&gt;Nodes -->
<g id="edge4" class="edge">
<title>NodeRefs:f2&#45;&gt;Nodes:f2</title>
<path fill="none" stroke="black" d="M176,-73C176,-60.58 171.41,-55.72 169.18,-46.97"/>
<polygon fill="black" stroke="black" points="172.65,-46.52 168,-37 165.7,-47.34 172.65,-46.52"/>
</g>
<!-- NodeRefs&#45;&gt;Nodes -->
<g id="edge5" class="edge">
<title>NodeRefs:f3&#45;&gt;Nodes:f3</title>
<path fill="none" stroke="black" d="M194,-73C194,-60.93 191.75,-55.77 190.62,-47.15"/>
<polygon fill="black" stroke="black" points="194.11,-46.77 190,-37 187.12,-47.2 194.11,-46.77"/>
</g>
<!-- NodeRefs&#45;&gt;Nodes -->
<g id="edge6" class="edge">
<title>NodeRefs:f4&#45;&gt;Nodes:f4</title>
<path fill="none" stroke="black" d="M212,-73C212,-61 211.44,-55.75 211.16,-47.13"/>
<polygon fill="black" stroke="black" points="214.65,-46.94 211,-37 207.65,-47.05 214.65,-46.94"/>
</g>
<!-- NodeRefs&#45;&gt;Nodes -->
<g id="edge7" class="edge">
<title>NodeRefs:f5&#45;&gt;Nodes:f5</title>
<path fill="none" stroke="black" d="M230,-73C230,-61 230.56,-55.75 230.84,-47.13"/>
<polygon fill="black" stroke="black" points="234.35,-47.05 231,-37 227.35,-46.94 234.35,-47.05"/>
</g>
<!-- NodeRefs&#45;&gt;Nodes -->
<g id="edge8" class="edge">
<title>NodeRefs:f6&#45;&gt;Nodes:f6</title>
<path fill="none" stroke="black" d="M248,-73C248,-60.88 250.81,-55.78 252.22,-47.17"/>
<polygon fill="black" stroke="black" points="255.72,-47.24 253,-37 248.74,-46.7 255.72,-47.24"/>
</g>
<!-- NodeRefs&#45;&gt;Nodes -->
<g id="edge9" class="edge">
<title>NodeRefs:f7&#45;&gt;Nodes:f7</title>
<path fill="none" stroke="black" d="M266,-73C266,-60.78 269.94,-55.81 271.91,-47.21"/>
<polygon fill="black" stroke="black" points="275.41,-47.32 273,-37 268.45,-46.57 275.41,-47.32"/>
</g>
<!-- NodeRefs&#45;&gt;Nodes -->
<g id="edge10" class="edge">
<title>NodeRefs:f8&#45;&gt;Nodes:f8</title>
<path fill="none" stroke="black" d="M284,-73C284,-60.5 289.17,-55.74 291.67,-46.99"/>
<polygon fill="black" stroke="black" points="295.15,-47.37 293,-37 288.21,-46.45 295.15,-47.37"/>
</g>
<!-- NodeRefs&#45;&gt;Nodes -->
<g id="edge11" class="edge">
<title>NodeRefs:f9&#45;&gt;Nodes:f9</title>
<path fill="none" stroke="black" d="M302,-73C302,-59.98 309.62,-55.76 313.19,-46.87"/>
<polygon fill="black" stroke="black" points="316.64,-47.47 315,-37 309.76,-46.21 316.64,-47.47"/>
</g>
<!-- NodeRefs&#45;&gt;Nodes -->
<g id="edge12" class="edge">
<title>NodeRefs:f10&#45;&gt;Nodes:f10</title>
<path fill="none" stroke="black" d="M325,-73C325,-60.42 330.74,-55.77 333.52,-47.03"/>
<polygon fill="black" stroke="black" points="337.01,-47.4 335,-37 330.08,-46.38 337.01,-47.4"/>
</g>
<!-- NodeRefs&#45;&gt;Nodes -->
<g id="edge13" class="edge">
<title>NodeRefs:f11&#45;&gt;Nodes:f11</title>
<path fill="none" stroke="black" d="M352,-73C352,-60.88 354.81,-55.78 356.22,-47.17"/>
<polygon fill="black" stroke="black" points="359.72,-47.24 357,-37 352.74,-46.7 359.72,-47.24"/>
</g>
<!-- NodeRefs&#45;&gt;Nodes -->
<g id="edge14" class="edge">
<title>NodeRefs:f12&#45;&gt;Nodes:f12</title>
<path fill="none" stroke="black" d="M379,-73C379,-61 379.56,-55.75 379.84,-47.13"/>
<polygon fill="black" stroke="black" points="383.35,-47.05 380,-37 376.35,-46.94 383.35,-47.05"/>
</g>
<!-- NodeRefs&#45;&gt;Nodes -->
<g id="edge15" class="edge">
<title>NodeRefs:f13&#45;&gt;Nodes:f13</title>
<path fill="none" stroke="black" d="M406,-73C406,-60.83 402.62,-55.79 400.94,-47.19"/>
<polygon fill="black" stroke="black" points="404.4,-46.64 400,-37 397.43,-47.28 404.4,-46.64"/>
</g>
<!-- NodeRefs&#45;&gt;Nodes -->
<g id="edge16" class="edge">
<title>NodeRefs:f14&#45;&gt;Nodes:f14</title>
<path fill="none" stroke="black" d="M433,-73C433,-60.42 427.26,-55.77 424.48,-47.03"/>
<polygon fill="black" stroke="black" points="427.92,-46.38 423,-37 420.99,-47.4 427.92,-46.38"/>
</g>
<!-- NodeRefs&#45;&gt;Nodes -->
<g id="edge17" class="edge">
<title>NodeRefs:f15&#45;&gt;Nodes:f15</title>
<path fill="none" stroke="black" d="M460,-73C460,-59.73 451.21,-55.84 447.09,-46.96"/>
<polygon fill="black" stroke="black" points="450.47,-46.07 445,-37 443.62,-47.51 450.47,-46.07"/>
</g>
</g>
</svg>
